<svg width="409" height="170" viewBox="0 0 409 170" fill="none" xmlns="http://www.w3.org/2000/svg">
    <path d="M103.5 82.4019C105.5 83.5566 105.5 86.4434 103.5 87.5981L43.5 122.239C41.5 123.394 39 121.95 39 119.641V50.359C39 48.0496 41.5 46.6062 43.5 47.7609L103.5 82.4019Z" fill="#4463D4" fill-opacity="0.78"/>
    <path d="M136.5 101.402C138.5 102.557 138.5 105.443 136.5 106.598L76.5 141.239C74.5 142.394 72 140.95 72 138.641V69.359C72 67.0496 74.5 65.6062 76.5 66.7609L136.5 101.402Z" fill="#8C44D4" fill-opacity="0.78"/>
    <path d="M136.5 63.4019C138.5 64.5566 138.5 67.4434 136.5 68.5981L76.5 103.239C74.5 104.394 72 102.95 72 100.641V31.359C72 29.0496 74.5 27.6062 76.5 28.7609L136.5 63.4019Z" fill="#8CD444" fill-opacity="0.78"/>
    <path d="M185.276 53.8182H192.102L199.312 71.4091H199.619L206.83 53.8182H213.656V80H208.287V62.9588H208.07L201.294 79.8722H197.638L190.862 62.8949H190.645V80H185.276V53.8182ZM218.217 80V53.8182H235.859V58.3821H223.752V64.6207H234.951V69.1847H223.752V75.4361H235.91V80H218.217ZM249.541 80H240.26V53.8182H249.618C252.251 53.8182 254.518 54.3423 256.419 55.3906C258.32 56.4304 259.781 57.9261 260.804 59.8778C261.835 61.8295 262.351 64.1648 262.351 66.8835C262.351 69.6108 261.835 71.9545 260.804 73.9148C259.781 75.875 258.311 77.3793 256.393 78.4276C254.484 79.4759 252.2 80 249.541 80ZM245.795 75.2571H249.311C250.947 75.2571 252.324 74.9673 253.44 74.3878C254.565 73.7997 255.409 72.892 255.972 71.6648C256.543 70.429 256.828 68.8352 256.828 66.8835C256.828 64.9489 256.543 63.3679 255.972 62.1406C255.409 60.9134 254.57 60.0099 253.453 59.4304C252.337 58.8509 250.96 58.5611 249.324 58.5611H245.795V75.2571ZM271.987 53.8182V80H266.451V53.8182H271.987ZM307.974 62.9844H302.375C302.272 62.2599 302.064 61.6165 301.748 61.054C301.433 60.483 301.028 59.9972 300.534 59.5966C300.039 59.196 299.468 58.8892 298.821 58.6761C298.181 58.4631 297.487 58.3565 296.737 58.3565C295.382 58.3565 294.201 58.6932 293.196 59.3665C292.19 60.0312 291.41 61.0028 290.856 62.2812C290.302 63.5511 290.025 65.0937 290.025 66.9091C290.025 68.7756 290.302 70.3437 290.856 71.6136C291.419 72.8835 292.203 73.8423 293.208 74.4901C294.214 75.1378 295.377 75.4616 296.699 75.4616C297.44 75.4616 298.126 75.3636 298.757 75.1676C299.396 74.9716 299.963 74.6861 300.457 74.3111C300.951 73.9276 301.36 73.4631 301.684 72.9176C302.017 72.3722 302.247 71.75 302.375 71.0511L307.974 71.0767C307.829 72.2784 307.467 73.4375 306.887 74.554C306.316 75.6619 305.545 76.6548 304.574 77.5327C303.61 78.402 302.46 79.0923 301.122 79.6037C299.792 80.1065 298.288 80.358 296.609 80.358C294.274 80.358 292.186 79.8295 290.345 78.7727C288.512 77.7159 287.064 76.1861 285.998 74.1832C284.941 72.1804 284.413 69.7557 284.413 66.9091C284.413 64.054 284.95 61.625 286.024 59.6222C287.098 57.6193 288.555 56.0937 290.396 55.0455C292.237 53.9886 294.308 53.4602 296.609 53.4602C298.126 53.4602 299.532 53.6733 300.828 54.0994C302.132 54.5256 303.287 55.1477 304.292 55.9659C305.298 56.7756 306.116 57.7685 306.747 58.9446C307.386 60.1207 307.795 61.4673 307.974 62.9844ZM315.964 80H310.032L319.071 53.8182H326.204L335.23 80H329.298L322.74 59.8011H322.535L315.964 80ZM315.593 69.7088H329.605V74.0298H315.593V69.7088ZM338.381 80V53.8182H348.711C350.688 53.8182 352.375 54.1719 353.773 54.8793C355.179 55.5781 356.249 56.571 356.982 57.858C357.723 59.1364 358.094 60.6406 358.094 62.3707C358.094 64.1094 357.719 65.6051 356.969 66.858C356.219 68.1023 355.132 69.0568 353.709 69.7216C352.294 70.3864 350.581 70.7188 348.57 70.7188H341.654V66.2699H347.675C348.732 66.2699 349.61 66.125 350.309 65.8352C351.007 65.5455 351.527 65.1108 351.868 64.5312C352.218 63.9517 352.392 63.2315 352.392 62.3707C352.392 61.5014 352.218 60.7685 351.868 60.1719C351.527 59.5753 351.003 59.1236 350.296 58.8168C349.597 58.5014 348.715 58.3438 347.65 58.3438H343.917V80H338.381ZM352.52 68.0852L359.027 80H352.917L346.55 68.0852H352.52ZM362.006 80V53.8182H379.648V58.3821H367.542V64.6207H378.74V69.1847H367.542V75.4361H379.699V80H362.006Z" fill="#221E1E"/>
    <path d="M184.598 120V105.455H193.717V107.344H186.793V111.776H193.241V113.658H186.793V118.111H193.803V120H184.598ZM205.811 109.091L201.855 120H199.582L195.619 109.091H197.899L200.662 117.486H200.775L203.531 109.091H205.811ZM212.137 120.22C211.062 120.22 210.137 119.991 209.36 119.531C208.588 119.067 207.992 118.416 207.57 117.578C207.154 116.735 206.945 115.748 206.945 114.616C206.945 113.499 207.154 112.514 207.57 111.662C207.992 110.81 208.579 110.144 209.332 109.666C210.089 109.188 210.975 108.949 211.988 108.949C212.603 108.949 213.2 109.051 213.778 109.254C214.355 109.458 214.874 109.777 215.333 110.213C215.792 110.649 216.155 111.214 216.42 111.911C216.685 112.602 216.817 113.442 216.817 114.432V115.185H208.146V113.594H214.737C214.737 113.035 214.623 112.54 214.396 112.109C214.168 111.674 213.849 111.33 213.437 111.08C213.03 110.829 212.551 110.703 212.002 110.703C211.406 110.703 210.885 110.85 210.44 111.143C209.999 111.432 209.658 111.811 209.417 112.28C209.18 112.744 209.062 113.248 209.062 113.793V115.036C209.062 115.765 209.19 116.385 209.445 116.896C209.706 117.408 210.068 117.798 210.532 118.068C210.996 118.333 211.538 118.466 212.158 118.466C212.561 118.466 212.928 118.409 213.259 118.295C213.591 118.177 213.877 118.002 214.119 117.77C214.36 117.538 214.545 117.251 214.673 116.911L216.683 117.273C216.522 117.865 216.233 118.383 215.816 118.828C215.404 119.268 214.886 119.612 214.261 119.858C213.64 120.099 212.933 120.22 212.137 120.22ZM219.174 120V109.091H221.226V110.824H221.34C221.539 110.237 221.889 109.775 222.391 109.439C222.898 109.098 223.471 108.928 224.11 108.928C224.242 108.928 224.399 108.932 224.578 108.942C224.763 108.951 224.908 108.963 225.012 108.977V111.009C224.926 110.985 224.775 110.959 224.557 110.93C224.339 110.897 224.122 110.881 223.904 110.881C223.402 110.881 222.954 110.987 222.561 111.2C222.173 111.409 221.865 111.7 221.638 112.074C221.411 112.443 221.297 112.865 221.297 113.338V120H219.174ZM228.524 124.091C228.207 124.091 227.918 124.065 227.657 124.013C227.397 123.965 227.203 123.913 227.075 123.857L227.586 122.116C227.975 122.221 228.32 122.266 228.623 122.251C228.926 122.237 229.194 122.124 229.426 121.911C229.663 121.697 229.871 121.349 230.051 120.866L230.314 120.142L226.322 109.091H228.595L231.358 117.557H231.471L234.234 109.091H236.514L232.018 121.456C231.81 122.024 231.545 122.505 231.223 122.898C230.901 123.295 230.517 123.594 230.072 123.793C229.627 123.991 229.111 124.091 228.524 124.091ZM243.602 109.091V110.795H237.643V109.091H243.602ZM239.241 106.477H241.365V116.797C241.365 117.209 241.426 117.519 241.549 117.727C241.672 117.931 241.831 118.071 242.025 118.146C242.224 118.217 242.44 118.253 242.672 118.253C242.842 118.253 242.991 118.241 243.119 118.217C243.247 118.194 243.346 118.175 243.417 118.161L243.801 119.915C243.678 119.962 243.502 120.009 243.275 120.057C243.048 120.109 242.764 120.137 242.423 120.142C241.864 120.152 241.343 120.052 240.86 119.844C240.377 119.635 239.987 119.313 239.689 118.878C239.39 118.442 239.241 117.895 239.241 117.237V106.477ZM248.309 113.523V120H246.185V105.455H248.281V110.866H248.415C248.671 110.279 249.062 109.813 249.587 109.467C250.113 109.122 250.799 108.949 251.647 108.949C252.395 108.949 253.049 109.103 253.607 109.411C254.171 109.718 254.606 110.178 254.914 110.788C255.227 111.394 255.383 112.152 255.383 113.061V120H253.259V113.317C253.259 112.517 253.053 111.896 252.641 111.456C252.229 111.011 251.656 110.788 250.923 110.788C250.421 110.788 249.971 110.895 249.573 111.108C249.18 111.321 248.87 111.634 248.643 112.045C248.42 112.453 248.309 112.945 248.309 113.523ZM258.217 120V109.091H260.34V120H258.217ZM259.289 107.408C258.92 107.408 258.603 107.285 258.337 107.038C258.077 106.787 257.947 106.489 257.947 106.143C257.947 105.793 258.077 105.495 258.337 105.249C258.603 104.998 258.92 104.872 259.289 104.872C259.658 104.872 259.973 104.998 260.234 105.249C260.499 105.495 260.631 105.793 260.631 106.143C260.631 106.489 260.499 106.787 260.234 107.038C259.973 107.285 259.658 107.408 259.289 107.408ZM265.321 113.523V120H263.197V109.091H265.235V110.866H265.37C265.621 110.289 266.014 109.825 266.549 109.474C267.089 109.124 267.769 108.949 268.588 108.949C269.331 108.949 269.982 109.105 270.541 109.418C271.1 109.725 271.533 110.185 271.841 110.795C272.148 111.406 272.302 112.161 272.302 113.061V120H270.179V113.317C270.179 112.526 269.973 111.908 269.561 111.463C269.149 111.013 268.583 110.788 267.863 110.788C267.371 110.788 266.933 110.895 266.549 111.108C266.171 111.321 265.87 111.634 265.647 112.045C265.43 112.453 265.321 112.945 265.321 113.523ZM279.724 124.318C278.858 124.318 278.112 124.205 277.487 123.977C276.867 123.75 276.36 123.449 275.967 123.075C275.574 122.701 275.28 122.292 275.086 121.847L276.912 121.094C277.039 121.302 277.21 121.522 277.423 121.754C277.641 121.991 277.934 122.192 278.304 122.358C278.678 122.524 279.158 122.607 279.745 122.607C280.55 122.607 281.216 122.41 281.741 122.017C282.267 121.629 282.529 121.009 282.529 120.156V118.011H282.395C282.267 118.243 282.082 118.501 281.841 118.786C281.604 119.07 281.277 119.316 280.86 119.524C280.444 119.732 279.902 119.837 279.234 119.837C278.372 119.837 277.596 119.635 276.904 119.233C276.218 118.826 275.673 118.227 275.271 117.436C274.873 116.641 274.674 115.663 274.674 114.503C274.674 113.343 274.871 112.348 275.264 111.52C275.662 110.691 276.206 110.057 276.897 109.616C277.589 109.171 278.372 108.949 279.248 108.949C279.925 108.949 280.472 109.062 280.889 109.29C281.306 109.512 281.63 109.773 281.862 110.071C282.099 110.369 282.281 110.632 282.409 110.859H282.565V109.091H284.646V120.241C284.646 121.179 284.428 121.948 283.993 122.55C283.557 123.151 282.967 123.596 282.224 123.885C281.485 124.174 280.652 124.318 279.724 124.318ZM279.703 118.075C280.314 118.075 280.83 117.933 281.251 117.649C281.677 117.36 281.999 116.948 282.217 116.413C282.44 115.874 282.551 115.227 282.551 114.474C282.551 113.741 282.442 113.094 282.224 112.536C282.006 111.977 281.687 111.541 281.265 111.229C280.844 110.911 280.323 110.753 279.703 110.753C279.064 110.753 278.531 110.919 278.105 111.25C277.679 111.577 277.357 112.022 277.139 112.585C276.926 113.149 276.819 113.778 276.819 114.474C276.819 115.189 276.928 115.817 277.146 116.357C277.364 116.896 277.686 117.318 278.112 117.621C278.543 117.924 279.073 118.075 279.703 118.075ZM295.962 120.241C295.27 120.241 294.645 120.114 294.087 119.858C293.528 119.598 293.085 119.221 292.759 118.729C292.437 118.236 292.276 117.633 292.276 116.918C292.276 116.302 292.394 115.795 292.631 115.398C292.867 115 293.187 114.685 293.589 114.453C293.992 114.221 294.442 114.046 294.939 113.928C295.436 113.809 295.943 113.719 296.459 113.658C297.112 113.582 297.643 113.52 298.05 113.473C298.457 113.421 298.753 113.338 298.938 113.224C299.122 113.111 299.214 112.926 299.214 112.67V112.621C299.214 112 299.039 111.52 298.689 111.179C298.343 110.838 297.827 110.668 297.141 110.668C296.426 110.668 295.862 110.826 295.45 111.143C295.043 111.456 294.761 111.804 294.605 112.188L292.609 111.733C292.846 111.07 293.192 110.535 293.646 110.128C294.106 109.716 294.634 109.418 295.23 109.233C295.827 109.044 296.454 108.949 297.112 108.949C297.548 108.949 298.009 109.001 298.497 109.105C298.99 109.205 299.449 109.389 299.875 109.659C300.306 109.929 300.659 110.315 300.933 110.817C301.208 111.314 301.345 111.96 301.345 112.756V120H299.271V118.509H299.186C299.049 118.783 298.843 119.053 298.568 119.318C298.294 119.583 297.941 119.804 297.51 119.979C297.079 120.154 296.563 120.241 295.962 120.241ZM296.423 118.537C297.01 118.537 297.512 118.421 297.929 118.189C298.35 117.957 298.67 117.654 298.888 117.28C299.11 116.901 299.222 116.496 299.222 116.065V114.659C299.146 114.735 298.999 114.806 298.781 114.872C298.568 114.934 298.324 114.988 298.05 115.036C297.775 115.078 297.508 115.118 297.247 115.156C296.987 115.189 296.769 115.218 296.594 115.241C296.182 115.294 295.805 115.381 295.464 115.504C295.128 115.627 294.858 115.805 294.655 116.037C294.456 116.264 294.357 116.567 294.357 116.946C294.357 117.472 294.551 117.869 294.939 118.139C295.327 118.404 295.822 118.537 296.423 118.537ZM309.266 109.091V110.795H303.307V109.091H309.266ZM304.905 106.477H307.029V116.797C307.029 117.209 307.09 117.519 307.213 117.727C307.337 117.931 307.495 118.071 307.689 118.146C307.888 118.217 308.104 118.253 308.336 118.253C308.506 118.253 308.655 118.241 308.783 118.217C308.911 118.194 309.01 118.175 309.081 118.161L309.465 119.915C309.342 119.962 309.167 120.009 308.939 120.057C308.712 120.109 308.428 120.137 308.087 120.142C307.528 120.152 307.007 120.052 306.525 119.844C306.042 119.635 305.651 119.313 305.353 118.878C305.054 118.442 304.905 117.895 304.905 117.237V106.477ZM321.503 120.22C320.48 120.22 319.588 119.986 318.826 119.517C318.063 119.048 317.471 118.393 317.05 117.55C316.629 116.707 316.418 115.722 316.418 114.595C316.418 113.464 316.629 112.474 317.05 111.626C317.471 110.779 318.063 110.121 318.826 109.652C319.588 109.183 320.48 108.949 321.503 108.949C322.526 108.949 323.418 109.183 324.181 109.652C324.943 110.121 325.535 110.779 325.956 111.626C326.378 112.474 326.588 113.464 326.588 114.595C326.588 115.722 326.378 116.707 325.956 117.55C325.535 118.393 324.943 119.048 324.181 119.517C323.418 119.986 322.526 120.22 321.503 120.22ZM321.51 118.438C322.173 118.438 322.722 118.262 323.158 117.912C323.594 117.562 323.916 117.095 324.124 116.513C324.337 115.93 324.444 115.289 324.444 114.588C324.444 113.892 324.337 113.253 324.124 112.67C323.916 112.083 323.594 111.612 323.158 111.257C322.722 110.902 322.173 110.724 321.51 110.724C320.843 110.724 320.289 110.902 319.848 111.257C319.413 111.612 319.088 112.083 318.875 112.67C318.667 113.253 318.563 113.892 318.563 114.588C318.563 115.289 318.667 115.93 318.875 116.513C319.088 117.095 319.413 117.562 319.848 117.912C320.289 118.262 320.843 118.438 321.51 118.438ZM331.082 113.523V120H328.959V109.091H330.997V110.866H331.132C331.383 110.289 331.776 109.825 332.311 109.474C332.851 109.124 333.53 108.949 334.349 108.949C335.093 108.949 335.744 109.105 336.303 109.418C336.861 109.725 337.295 110.185 337.602 110.795C337.91 111.406 338.064 112.161 338.064 113.061V120H335.94V113.317C335.94 112.526 335.734 111.908 335.322 111.463C334.911 111.013 334.345 110.788 333.625 110.788C333.133 110.788 332.695 110.895 332.311 111.108C331.932 111.321 331.632 111.634 331.409 112.045C331.191 112.453 331.082 112.945 331.082 113.523ZM345.614 120.22C344.539 120.22 343.613 119.991 342.837 119.531C342.065 119.067 341.468 118.416 341.047 117.578C340.63 116.735 340.422 115.748 340.422 114.616C340.422 113.499 340.63 112.514 341.047 111.662C341.468 110.81 342.055 110.144 342.808 109.666C343.566 109.188 344.451 108.949 345.464 108.949C346.08 108.949 346.677 109.051 347.254 109.254C347.832 109.458 348.35 109.777 348.81 110.213C349.269 110.649 349.631 111.214 349.896 111.911C350.161 112.602 350.294 113.442 350.294 114.432V115.185H341.622V113.594H348.213C348.213 113.035 348.099 112.54 347.872 112.109C347.645 111.674 347.325 111.33 346.913 111.08C346.506 110.829 346.028 110.703 345.479 110.703C344.882 110.703 344.361 110.85 343.916 111.143C343.476 111.432 343.135 111.811 342.893 112.28C342.657 112.744 342.538 113.248 342.538 113.793V115.036C342.538 115.765 342.666 116.385 342.922 116.896C343.182 117.408 343.545 117.798 344.009 118.068C344.473 118.333 345.015 118.466 345.635 118.466C346.037 118.466 346.404 118.409 346.736 118.295C347.067 118.177 347.354 118.002 347.595 117.77C347.837 117.538 348.021 117.251 348.149 116.911L350.159 117.273C349.998 117.865 349.709 118.383 349.293 118.828C348.881 119.268 348.362 119.612 347.737 119.858C347.117 120.099 346.409 120.22 345.614 120.22ZM357.943 124.091V109.091H360.017V110.859H360.195C360.318 110.632 360.495 110.369 360.727 110.071C360.959 109.773 361.281 109.512 361.693 109.29C362.105 109.062 362.65 108.949 363.327 108.949C364.207 108.949 364.993 109.171 365.685 109.616C366.376 110.062 366.918 110.703 367.311 111.541C367.709 112.379 367.908 113.388 367.908 114.567C367.908 115.746 367.711 116.757 367.318 117.599C366.925 118.437 366.385 119.084 365.699 119.538C365.012 119.988 364.229 120.213 363.348 120.213C362.685 120.213 362.143 120.102 361.722 119.879C361.305 119.657 360.978 119.396 360.741 119.098C360.505 118.8 360.322 118.535 360.195 118.303H360.067V124.091H357.943ZM360.024 114.545C360.024 115.312 360.135 115.985 360.358 116.562C360.58 117.14 360.902 117.592 361.324 117.919C361.745 118.241 362.261 118.402 362.872 118.402C363.507 118.402 364.037 118.234 364.463 117.898C364.889 117.557 365.211 117.095 365.429 116.513C365.652 115.93 365.763 115.275 365.763 114.545C365.763 113.826 365.654 113.179 365.436 112.607C365.223 112.034 364.901 111.581 364.47 111.25C364.044 110.919 363.511 110.753 362.872 110.753C362.257 110.753 361.736 110.911 361.31 111.229C360.888 111.546 360.569 111.989 360.351 112.557C360.133 113.125 360.024 113.788 360.024 114.545ZM372.411 105.455V120H370.287V105.455H372.411ZM378.442 120.241C377.751 120.241 377.126 120.114 376.567 119.858C376.008 119.598 375.566 119.221 375.239 118.729C374.917 118.236 374.756 117.633 374.756 116.918C374.756 116.302 374.874 115.795 375.111 115.398C375.348 115 375.667 114.685 376.07 114.453C376.472 114.221 376.922 114.046 377.419 113.928C377.917 113.809 378.423 113.719 378.939 113.658C379.593 113.582 380.123 113.52 380.53 113.473C380.937 113.421 381.233 113.338 381.418 113.224C381.603 113.111 381.695 112.926 381.695 112.67V112.621C381.695 112 381.52 111.52 381.169 111.179C380.824 110.838 380.308 110.668 379.621 110.668C378.906 110.668 378.343 110.826 377.931 111.143C377.524 111.456 377.242 111.804 377.086 112.188L375.09 111.733C375.327 111.07 375.672 110.535 376.127 110.128C376.586 109.716 377.114 109.418 377.711 109.233C378.307 109.044 378.935 108.949 379.593 108.949C380.028 108.949 380.49 109.001 380.978 109.105C381.47 109.205 381.929 109.389 382.355 109.659C382.786 109.929 383.139 110.315 383.414 110.817C383.688 111.314 383.826 111.96 383.826 112.756V120H381.752V118.509H381.667C381.529 118.783 381.323 119.053 381.049 119.318C380.774 119.583 380.421 119.804 379.99 119.979C379.56 120.154 379.043 120.241 378.442 120.241ZM378.904 118.537C379.491 118.537 379.993 118.421 380.409 118.189C380.831 117.957 381.15 117.654 381.368 117.28C381.591 116.901 381.702 116.496 381.702 116.065V114.659C381.626 114.735 381.48 114.806 381.262 114.872C381.049 114.934 380.805 114.988 380.53 115.036C380.256 115.078 379.988 115.118 379.728 115.156C379.467 115.189 379.249 115.218 379.074 115.241C378.662 115.294 378.286 115.381 377.945 115.504C377.609 115.627 377.339 115.805 377.135 116.037C376.936 116.264 376.837 116.567 376.837 116.946C376.837 117.472 377.031 117.869 377.419 118.139C377.808 118.404 378.302 118.537 378.904 118.537ZM391.249 120.22C390.193 120.22 389.284 119.981 388.522 119.503C387.764 119.02 387.182 118.355 386.775 117.507C386.368 116.66 386.164 115.689 386.164 114.595C386.164 113.487 386.372 112.509 386.789 111.662C387.206 110.81 387.793 110.144 388.55 109.666C389.308 109.188 390.201 108.949 391.228 108.949C392.057 108.949 392.795 109.103 393.444 109.411C394.093 109.714 394.616 110.14 395.013 110.689C395.416 111.238 395.655 111.88 395.731 112.614H393.664C393.55 112.102 393.29 111.662 392.883 111.293C392.48 110.923 391.941 110.739 391.263 110.739C390.672 110.739 390.153 110.895 389.708 111.207C389.268 111.515 388.924 111.955 388.678 112.528C388.432 113.097 388.309 113.769 388.309 114.545C388.309 115.341 388.43 116.027 388.671 116.605C388.913 117.183 389.254 117.63 389.694 117.947C390.139 118.265 390.662 118.423 391.263 118.423C391.666 118.423 392.031 118.35 392.357 118.203C392.689 118.052 392.966 117.836 393.188 117.557C393.415 117.277 393.574 116.941 393.664 116.548H395.731C395.655 117.254 395.425 117.884 395.042 118.438C394.658 118.991 394.145 119.427 393.501 119.744C392.862 120.062 392.111 120.22 391.249 120.22ZM402.703 120.22C401.629 120.22 400.703 119.991 399.926 119.531C399.155 119.067 398.558 118.416 398.137 117.578C397.72 116.735 397.512 115.748 397.512 114.616C397.512 113.499 397.72 112.514 398.137 111.662C398.558 110.81 399.145 110.144 399.898 109.666C400.656 109.188 401.541 108.949 402.554 108.949C403.17 108.949 403.766 109.051 404.344 109.254C404.922 109.458 405.44 109.777 405.9 110.213C406.359 110.649 406.721 111.214 406.986 111.911C407.251 112.602 407.384 113.442 407.384 114.432V115.185H398.712V113.594H405.303C405.303 113.035 405.189 112.54 404.962 112.109C404.735 111.674 404.415 111.33 404.003 111.08C403.596 110.829 403.118 110.703 402.569 110.703C401.972 110.703 401.451 110.85 401.006 111.143C400.566 111.432 400.225 111.811 399.983 112.28C399.747 112.744 399.628 113.248 399.628 113.793V115.036C399.628 115.765 399.756 116.385 400.012 116.896C400.272 117.408 400.634 117.798 401.098 118.068C401.562 118.333 402.105 118.466 402.725 118.466C403.127 118.466 403.494 118.409 403.826 118.295C404.157 118.177 404.444 118.002 404.685 117.77C404.926 117.538 405.111 117.251 405.239 116.911L407.249 117.273C407.088 117.865 406.799 118.383 406.382 118.828C405.971 119.268 405.452 119.612 404.827 119.858C404.207 120.099 403.499 120.22 402.703 120.22Z" fill="white"/>
</svg>
